<?xml version="1.0" encoding="utf-8"?>
<!-- Generator: Adobe Illustrator 21.0.0, SVG Export Plug-In . SVG Version: 6.00 Build 0)  -->
<svg version="1.1" id="Layer_1" xmlns="http://www.w3.org/2000/svg" xmlns:xlink="http://www.w3.org/1999/xlink" x="0px" y="0px"
	 viewBox="0 0 217.8 216.5" style="enable-background:new 0 0 217.8 216.5;" xml:space="preserve">
<style type="text/css">
	.st0{fill:#FFFFFF;}
</style>
<g>
	<path class="st0" d="M185,139.8c-0.7,1.6-2,2.5-3.7,3.1c-35.8,13.1-71.6,26.2-107.4,39.3c-1.8,0.6-3.9,0.7-5.8,0.7
		c-10.4,0.1-20.7,0-31.1,0c-2.8,0-4.3-1.5-4.3-4.3c0-46.9,0-93.7,0-140.6c0-2.8,1.5-4.3,4.3-4.3c10.4,0,20.8,0,31.2,0
		c2.8,0,4.3,1.5,4.3,4.3c0,11.9,0,23.8,0,35.7c0,0.5,0,1.1,0,1.6c0.1,0,0.2,0.1,0.3,0.1c0.2-0.4,0.4-0.9,0.6-1.3
		c4.7-11.1,9.3-22.1,14-33.2c1.4-3.3,3.1-4,6.4-2.6c8.8,3.7,17.5,7.4,26.3,11.1c3.4,1.4,4.1,3.1,2.7,6.6
		c-4.7,11.1-9.4,22.2-14.1,33.4c-0.2,0.5-0.4,1-0.6,1.5c0.2,0.2,0.4,0.3,0.6,0.5c0.3-0.5,0.5-1,0.8-1.4c8.4-8.4,16.7-16.8,25.1-25.1
		c2.4-2.4,4.3-2.4,6.7,0c6.8,6.8,13.6,13.6,20.4,20.4c2.5,2.5,2.5,4.3,0,6.9c-8.6,8.6-17.2,17.2-25.9,25.8c-0.4,0.4-0.8,0.7-1.3,1
		c0.1,0.1,0.2,0.2,0.2,0.3c1-0.3,1.9-0.7,2.9-1c10.3-3.8,20.5-7.5,30.8-11.3c2.9-1.1,4.7-0.2,5.8,2.7c3.4,9.3,6.9,18.7,10.3,28
		c0.1,0.2,0.2,0.4,0.3,0.6C185,138.6,185,139.2,185,139.8z M65,175.4c0-44.8,0-89.5,0-134.2c-8.3,0-16.5,0-24.7,0
		c0,44.8,0,89.5,0,134.2C48.6,175.4,56.7,175.4,65,175.4z M76.2,166.3c0,0,0.1,0.1,0.1,0.1c26-26.1,52-52.2,78-78.2
		c-5.4-5.4-10.9-10.8-16.4-16.3c-0.1,0.1-0.4,0.3-0.6,0.5c-12.2,12.2-24.5,24.4-36.7,36.7c-0.5,0.5-0.8,1.1-1.1,1.7
		c-4.6,10.8-9.1,21.6-13.7,32.4C82.7,150.9,79.5,158.6,76.2,166.3z M93.4,46.1c-0.2,0.4-0.3,0.6-0.4,0.8
		c-6.7,15.9-13.4,31.7-20,47.6c-0.3,0.6-0.4,1.3-0.4,2c0,19.1,0,38.2,0,57.2c0,0.4,0,0.8,0.1,1.2c0.1,0,0.2,0,0.3,0
		c14-33.2,28-66.5,42.1-99.8C107.7,52.1,100.6,49.1,93.4,46.1z M82.5,170.5c0.1,0.2,0.3,0.3,0.4,0.5c31.2-11.4,62.3-22.8,93.6-34.3
		c-2.7-7.4-5.4-14.7-8.1-21.9c-0.4,0.1-0.5,0.1-0.6,0.1c-15,5.5-30.1,11-45.1,16.6c-0.7,0.2-1.3,0.7-1.8,1.2
		c-12.3,12.3-24.7,24.6-37,36.9C83.5,170,83,170.2,82.5,170.5z"/>
	<path class="st0" d="M47.3,165.4c0-2.9,2.6-5.3,5.5-5.3c2.9,0.1,5.3,2.5,5.2,5.4c-0.1,2.9-2.6,5.4-5.4,5.4
		C49.6,170.8,47.3,168.3,47.3,165.4z"/>
</g>
</svg>
