<?xml version="1.0" encoding="utf-8"?>
<!-- Generator: Adobe Illustrator 21.0.0, SVG Export Plug-In . SVG Version: 6.00 Build 0)  -->
<svg version="1.1" id="Layer_1" xmlns="http://www.w3.org/2000/svg" xmlns:xlink="http://www.w3.org/1999/xlink" x="0px" y="0px"
	 viewBox="0 0 217.8 216.5" style="enable-background:new 0 0 217.8 216.5;" xml:space="preserve">
<style type="text/css">
	.st0{fill:#FFFFFF;}
</style>
<g>
	<path class="st0" d="M168.7,80.5c0.1,8.9-0.2,19.2-1.8,29.4c-2.9,18.1-8.8,34.9-21,49c-9.2,10.7-20.6,18.2-34.3,21.9
		c-2.4,0.6-4.6,0.4-6.9-0.3c-13.5-3.9-24.6-11.6-33.5-22.2c-10-12-15.7-26-19-41.1c-2.3-10.7-3-21.6-3.1-32.5c0-7.1,0-14.1,0-21.2
		c0-6.4,3.9-10.2,10.4-9.9c6.5,0.2,12.9-0.2,19.3-1.4c7.8-1.4,14.1-5.6,19.9-10.8c1.3-1.1,2.5-2.3,3.7-3.4c3.5-3.2,8.2-3.5,12-0.6
		c1.8,1.3,3.5,2.7,5.2,4.2c9.1,8.3,19.9,11.9,32,11.9c2.4,0,4.8,0,7.2,0c5.8-0.2,9.8,3.6,9.9,9.5C168.7,68.3,168.7,73.7,168.7,80.5z
		 M58.3,62.4c0,2,0,3.7,0,5.4c0.1,12.9-0.5,25.9,1.4,38.7c1.7,11.5,4.6,22.6,10.1,33c7.4,13.9,17.9,24.4,32.5,30.6
		c4.5,1.9,8.5,1.8,12.9,0c16.3-6.9,27.5-19,34.8-34.9c6.4-13.8,8.9-28.5,9.3-43.6c0.3-9.2,0.1-18.4,0.1-27.5c0-0.5-0.1-0.9-0.1-1.5
		c-9.4,0.2-18.7-0.1-27.5-3c-9-3-16.2-8.8-23.4-15.2C95,59.4,77.8,63.8,58.3,62.4z"/>
	<path class="st0" d="M100.3,120.5c0.5-0.7,0.8-1.3,1.2-1.7c11.3-11.3,22.6-22.6,33.9-33.9c3.3-3.3,8.4-2.1,9.5,2.3
		c0.6,2.3-0.3,4.1-1.9,5.7c-8.8,8.7-17.5,17.5-26.3,26.3c-4.1,4.1-8.2,8.2-12.3,12.3c-2.8,2.8-5.9,2.8-8.7,0.1c-7-7-14-14-21-21
		c-2.6-2.6-2.7-5.9-0.4-8.2c2.3-2.3,5.7-2.1,8.2,0.5C88.3,108.6,94.1,114.3,100.3,120.5z"/>
</g>
</svg>
