<?xml version="1.0" encoding="utf-8"?>
<!-- Generator: Adobe Illustrator 21.0.0, SVG Export Plug-In . SVG Version: 6.00 Build 0)  -->
<svg version="1.1" id="Layer_1" xmlns="http://www.w3.org/2000/svg" xmlns:xlink="http://www.w3.org/1999/xlink" x="0px" y="0px"
	 viewBox="0 0 217.8 216.5" style="enable-background:new 0 0 217.8 216.5;" xml:space="preserve">
<style type="text/css">
	.st0{fill:#FFFFFF;}
</style>
<g>
	<path class="st0" d="M122.8,0c3.8,0.9,7.4,2.3,10.1,5.3c3.3,3.5,4.6,7.8,4.6,12.5c0,10.6,0,21.1,0,31.7c0,0.8,0,1.5,0,2.5
		c4.3,0,8.4,0,12.6,0c4.5,0,8.9,0.6,12.9,2.6c11,5.4,16.9,14.3,17,26.6c0.2,25,0.1,50,0,75c0,9.5-5.1,16.2-13.7,18.5
		c-1.7,0.5-3.6,0.6-5.4,0.6c-36.1,0-72.3,0-108.4,0c-2.1,0-4-0.4-4.9-2.5c-1.1-2.6,0.7-4.9,4-5.5c2-0.4,4-0.9,5.6-2
		c3.1-2,4.2-5.2,4.2-8.9c0-15.7,0-31.4,0-47.1c0-9.4,0-18.7,0-28.1c0.1-14.1,9.5-25.7,23.3-28.5c2.3-0.5,4.6-0.6,6.9-0.6
		c4-0.1,8,0,12.4,0c0-0.9,0-1.6,0-2.3c0-9.8,0.3-19.6-0.1-29.4c-0.4-10.5,4.2-18,14.6-20.3C120,0,121.4,0,122.8,0z M172,84
		c0.1-0.2,0.2-0.3,0.2-0.5c1.1-12.9-8.5-23.5-21.4-23.5c-5.1,0-10.1,0-15.2,0c-4.8,0-6-1.2-6-6c0-12.4,0.1-24.8,0-37.2
		c0-6.5-6.5-10.7-12.3-8.1c-4,1.8-5.3,5.1-5.3,9.3c0,12.2,0,24.4,0,36.6c0,4.3-1.3,5.5-5.6,5.5c-5,0-10,0.1-15,0
		c-5.8-0.1-10.8,1.7-15,5.6c-5.4,5-7.4,11.2-6.7,18.5C103.9,84,137.9,84,172,84z M66.4,167.4c0.6,0.1,0.9,0.2,1.1,0.2
		c31.4,0,62.9,0,94.3,0c6.2,0,10.4-4.3,10.5-10.6c0.1-5.5,0.1-11,0-16.5c0-0.7-0.4-1.6-0.9-1.9c-5.4-4-11.5-6.4-18.3-7
		c-9.4-0.8-18.1,1.6-26.2,5.9c-5.8,3.1-11.1,6.8-16.8,10.1c-4.5,2.6-9.3,3.8-14.6,3.2c-4.6-0.5-8.4-2.9-12.3-5.2
		c-2.9-1.7-6-2.7-9.5-2.1c-3.2,0.5-4.1,1.6-4.2,4.8C69.4,154.6,70.5,161.3,66.4,167.4z M69.6,136.2c6.1-1.9,11.7-0.9,16.9,2
		c1.6,0.9,3.2,1.8,4.7,2.8c3.7,2.1,7.7,2.7,11.5,1c3.7-1.7,7.2-3.8,10.6-6c6.2-4,12.6-7.5,19.6-9.8c11.1-3.7,22.2-4.2,33.2,0.4
		c2,0.8,3.9,1.8,5.9,2.7c0-7.6,0-14.9,0-22.2c-34.2,0-68.4,0-102.5,0C69.6,116.8,69.6,126.4,69.6,136.2z M172.1,92.3
		c-34.2,0-68.3,0-102.5,0c0,2.3,0,4.4,0,6.6c34.2,0,68.4,0,102.5,0C172.1,96.5,172.1,94.5,172.1,92.3z"/>
	<path class="st0" d="M37.6,202.7c0.7-1.7,1.4-4.7,2.8-7.3c2-3.7,4.4-7.2,6.8-10.7c1.7-2.5,4.9-2.8,6.4-0.4
		c3.2,4.9,6.4,9.9,8.9,15.2c2.3,4.9,0.8,9.7-3.2,13.4c-3.9,3.7-8.7,4.6-13.7,2.5C40.7,213.4,38.1,209.4,37.6,202.7z M50.6,193.3
		c-1.8,3.3-3.4,6-4.6,8.9c-0.9,2,0,4.1,1.7,5.4c1.8,1.3,4.1,1.3,5.9-0.1c1.7-1.3,2.5-3.4,1.6-5.4C53.9,199.3,52.3,196.6,50.6,193.3z
		"/>
	<path class="st0" d="M120.8,14.1c1.7,0,3.1,1.4,3.1,3c0,1.6-1.3,3-2.9,3.1c-1.6,0.1-3.1-1.3-3.2-3
		C117.7,15.6,119.1,14.2,120.8,14.1z"/>
</g>
</svg>
