<?xml version="1.0" encoding="utf-8"?>
<!-- Generator: Adobe Illustrator 21.0.0, SVG Export Plug-In . SVG Version: 6.00 Build 0)  -->
<svg version="1.1" id="Layer_1" xmlns="http://www.w3.org/2000/svg" xmlns:xlink="http://www.w3.org/1999/xlink" x="0px" y="0px"
	 viewBox="0 0 217.8 216.5" style="enable-background:new 0 0 217.8 216.5;" xml:space="preserve">
<style type="text/css">
	.st0{fill:#FFFFFF;}
</style>
<g>
	<path class="st0" d="M176,176c-0.9-0.2-1.9-0.3-2.8-0.6c-7.8-2.1-13.3-6.9-16.5-14.3c-0.3-0.7-0.6-1.4-0.8-2c0-0.1-0.1-0.1-0.2-0.3
		c-4.5,0-9,0-13.6,0c-20.1-0.1-40.3-0.1-60.4-0.2c-1,0-1.4,0.3-1.8,1.3c-3.2,8.5-9.1,14.2-18.2,15.7c-7.4,1.2-13.6-1.4-18.7-6.7
		c-2.6-2.7-4.6-5.7-5.7-9.3c-0.3-0.9-0.7-1.2-1.6-1.2c-3-0.1-6.1-0.2-9.1-0.4c-0.5,0-1.1-0.4-1.6-0.7c-1.6-1.2-1.9-2.8-1.9-4.8
		c0.1-4,0-8,0-12c-0.2-0.1-0.4-0.2-0.6-0.2c-2.3,0.3-3.5-1.4-4.8-2.8c-0.1-0.1-0.2-0.4-0.2-0.6c0.1-6.4,0.1-12.9,0.3-19.3
		c0.1-2.3,1.1-3.3,3.3-3.9c1.8-0.5,3.5,0.2,4.6,1.9c0.5,0.8,0.7,2,0.7,3c0.1,4,0.1,7.9,0.1,11.9c0,0.2,0,0.4,0,0.7
		c39.5,0,79,0,118.5,0c0-27.2,0-54.4,0-81.7c-39.3,0-78.6,0-118,0c0,0.3-0.1,0.7-0.1,1c-0.1,4.6-0.1,9.3-0.3,13.9
		c0,0.5-0.3,1-0.6,1.4c-0.4,0.5-1,0.9-1.5,1.3c-2.2,1.4-5.3,0.6-6.4-1.7c-0.1-0.3-0.1-0.6-0.1-1c0-6.8,0-13.7,0-20.5
		c0-0.5,0.4-1.1,0.7-1.6c1-1.5,2.4-1.8,4.2-1.8c51.5,0,103,0,154.5,0c1.9,0,3,0.8,3.7,2.3c1.2,2.5,2.3,5.1,3.3,7.7
		c4.5,11.9,8.9,23.7,13.3,35.6c0.3,0.8,0.7,1.3,1.4,1.7c4,2.4,7.8,4.9,11.8,7.2c2.6,1.5,4.2,3.7,5.6,6.3c0.9,1.7,1.2,3.3,1.2,5.2
		c0,16.1,0,32.2,0,48.3c0,1.8-1.8,3.6-3.6,3.6c-4.5,0.1-9,0.2-13.4,0.2c-0.9,0-1.4,0.3-1.8,1.2c-1.4,3-2.8,6.1-5.1,8.5
		c-3.9,4.1-8.6,6.8-14.3,7.4c-0.2,0-0.4,0.1-0.6,0.2C177.9,176,176.9,176,176,176z M208.8,131.2c0-0.7,0-1.1,0-1.5
		c0-7.4-0.1-14.9,0.1-22.3c0-2.1-0.7-3.3-2.3-4.3c-4-2.4-8-4.9-12-7.4c-0.6-0.3-1.3-0.5-2-0.5c-12.3,0-24.6,0-36.9,0
		c-0.4,0-0.8,0-1.2,0c0,12.2,0,24.2,0,36.1C172.6,131.2,190.6,131.2,208.8,131.2z M154.5,85.7c0.2,0,0.4,0.1,0.5,0.1
		c10.3-0.1,20.6-0.1,30.9-0.2c0.6,0,1.1-0.2,1.8-0.3c-0.2-0.5-0.3-0.9-0.4-1.2c-4.2-11.2-8.4-22.4-12.5-33.6
		c-0.3-0.9-0.8-1.1-1.6-1.1c-5.8,0-11.6,0-17.4,0c-0.4,0-0.8,0-1.2,0C154.5,61.7,154.5,73.6,154.5,85.7z M159.5,140.5
		c-27.9,0-55.5,0-83.1,0c0.5,1,1,1.8,1.5,2.7c0.8,1.7,1.6,3.3,2.2,5.1c0.3,1,0.7,1.3,1.7,1.3c14.5,0,28.9,0,43.4,0.1
		c9.7,0,19.5,0.1,29.2,0.1c0.6,0,1.1,0.1,1.4-0.7c0.8-2.2,1.8-4.3,2.8-6.5C158.8,141.9,159.1,141.3,159.5,140.5z M178.5,166.8
		c2.3,0.1,5.4-0.8,7.9-3.1c4-3.6,5.3-9.9,3.2-15.2c-2-5.1-6.5-8-12.3-7.9c-3.9,0.1-7.5,1.1-10,4.2c-3.7,4.6-4,9.9-1.7,15.2
		C167.9,164.9,172.1,166.8,178.5,166.8z M71.9,153.6c-0.4-1.8-0.5-3.6-1.1-5.3c-2-4.9-5.9-7.2-11.1-7.8c-6.7-0.7-12.3,3.1-13.7,9.5
		c-1.1,4.9-0.5,9.6,3.3,13.3c3.3,3.3,7.5,3.8,12,3.3c4.1-0.5,7.2-2.6,9.1-6.3C71.3,158.2,71.6,155.9,71.9,153.6z M208.7,140.6
		c-4.5,0-8.8,0-13.3,0c0.1,0.2,0.1,0.4,0.1,0.5c1.2,2.6,2.5,5.3,3.8,7.9c0.1,0.3,0.6,0.6,1,0.6c1.7,0.1,3.4,0,5.1,0
		c1.1,0,2.2,0,3.3,0C208.7,146.5,208.7,143.6,208.7,140.6z M32.2,140.4c0,2.9,0,5.8,0,8.7c1.3,0.1,2.5,0.1,3.7,0.3
		c0.6,0.1,0.8-0.2,1-0.7c1.1-2.4,2.2-4.8,3.4-7.2c0.1-0.3,0.3-0.6,0.5-1C37.8,140.4,35,140.4,32.2,140.4z"/>
	<path class="st0" d="M22.8,77c6,0,11.9,0,17.9,0c0.8,0,1.8,0,2.3,0.4c1.1,0.9,2,2,2.2,3.5c0.4,2.5-0.9,4.4-3.3,4.7
		c-2.8,0.3-5.6,0.5-8.4,0.5c-8.5,0-17.1,0-25.6-0.1c-1.5,0-3.1-0.2-4.6-0.4C1,85.2-0.2,83.4,0,81.2c0.2-2.1,1.8-4.1,3.9-4.1
		c6.3,0.1,12.6,0,18.9,0C22.8,77.1,22.8,77.1,22.8,77z"/>
	<path class="st0" d="M22.6,95.2c3,0,5.9,0.1,8.9,0c1.8-0.1,2.9,0.8,3.9,2c1.3,1.8,1.1,3.7-0.3,5.4c-1,1.1-2.1,1.6-3.6,1.6
		c-4.9-0.1-9.8,0-14.6-0.1c-1.5,0-3-0.2-4.5-0.3c-2.9-0.2-4-4.2-2.5-6.1c0.6-0.8,1.3-1.5,2-2.2c0.2-0.2,0.7-0.2,1-0.2
		C16,95.2,19.3,95.2,22.6,95.2z"/>
</g>
</svg>
