<?xml version="1.0" encoding="utf-8"?>
<!-- Generator: Adobe Illustrator 21.0.0, SVG Export Plug-In . SVG Version: 6.00 Build 0)  -->
<svg version="1.1" id="Layer_1" xmlns="http://www.w3.org/2000/svg" xmlns:xlink="http://www.w3.org/1999/xlink" x="0px" y="0px"
	 viewBox="0 0 217.8 216.5" style="enable-background:new 0 0 217.8 216.5;" xml:space="preserve">
<style type="text/css">
	.st0{fill:#FFFFFF;}
</style>
<g>
	<path class="st0" d="M141.5,123.1c3.7-7.2,6-14.9,7.5-22.9c0.3-1.5,0.7-3.3,1.7-4.1c4.1-3.2,4.9-7.3,3.8-11.9
		c-2.3-9-2.8-18.2-2.8-27.5c0-2.1-0.2-4.2-0.7-6.2c-2.1-8.7-8.2-13.7-16.1-16.6c-3.8-1.4-7.7-2.2-11.6-3.2c-3.1-0.8-6-2-8.4-4.2
		c-3.2-3-8.7-3.4-11.3-0.7c-3,3.3-6.8,4.2-10.9,4.9c-7.7,1.2-14.6,4-20.3,9.6c-4.2,4-6.4,8.9-6.5,14.8c-0.1,4-0.2,8.1-0.6,12.1
		c-0.7,6.5-1.8,12.9-2.5,19.3c-0.6,5.3,1.9,9.2,7.1,10.9c1.9,0.6,3.9,0.9,5.9,0.8c6.3,0,11.9-2.4,17.3-5.4c4.6-2.5,9.4-4,14.7-4.1
		c6.4-0.2,12.1,1.9,17.8,4.5c3.6,1.7,7.3,3,11,4.4c1.3,0.5,2.7,0.6,4.2,0.9c-1.6,7.5-3.4,14.7-6.8,21.5c-3.4,7-8,12.9-14.6,17.2
		c-7.1,4.6-14.3,4.6-21.4-0.1c-4-2.6-7.2-5.9-10-9.8c-3.8-5.3-6.2-11.3-8.5-17.3c-0.4-0.9-0.8-1.9-1.2-2.8c-2.7,0.8-5.2,1.5-7.8,2.2
		c0.1,0.6,0.2,1.2,0.4,1.6c1.7,4.2,3.1,8.6,5.2,12.6c4.4,8.8,10.6,16.2,19.1,21.4c4.8,2.9,9.9,4.5,15.6,4c6.7-0.6,12.2-3.7,17.1-8.1
		C133.5,135.9,138,129.9,141.5,123.1z M73.9,66.9c0.3-4.3,0.5-8.7,0.8-13c0.3-5.1,2.8-9,7.5-10.7c8.5-3.1,17.1-6.1,26.3-6.4
		c2.6-0.1,5.2,0.3,7.7,0.9c4.8,1.1,9.6,2.2,14.3,3.6c5.8,1.7,10.4,4.8,11.9,11.1c0.5,1.9,0.5,4,0.5,6c0.1,4.1,0,8.2,0,12.4
		c-22.9-11.8-46-13-69.3,0.4C73.8,69.4,73.8,68.2,73.9,66.9z M140,89.4c-3.8-1.3-7.7-2.5-11.3-4.3c-13.4-6.6-26.6-6.6-40-0.1
		c-3.6,1.7-7.3,3.1-11,4.4c-3,1.1-4.9,0.6-5.9-1.3c-1.2-2.2-0.6-4.6,1.9-6.5c7.4-5.6,15.8-9.3,25-10.8c3.2-0.5,6.5-0.7,9.7-1.1
		c12.8,0.2,24.2,4.6,34.9,11.3c0.6,0.4,1.2,0.9,1.5,1.5c1,1.5,2,3.2,0.9,5.1C144.8,89,141.8,90.1,140,89.4z"/>
	<path class="st0" d="M102.1,165.4c-6.6-4.9-13.3-9.8-19.9-14.7c-2.4-1.8-4.9-2.3-7.7-1.6c-6.6,1.7-13.3,3.2-19.8,5
		c-7.8,2.1-15.5,4.7-22,9.6c-6.5,4.9-10.6,11.2-11.4,19.4c-0.1,0.9-0.2,1.9-0.3,2.8h8.5c0.7-7.3,4.1-13.2,10.7-17
		c3.3-1.9,6.7-3.6,10.2-4.7c7.9-2.3,15.9-4.3,24-6.2c1.2-0.3,2.9,0.1,4,0.8c3.5,2.3,6.8,4.8,10.2,7.3c1.9,1.4,3.8,2.9,5.9,4.4
		c-3,3.5-5.9,6.9-9,10.5c-0.5-0.6-0.9-1.1-1.3-1.6c-2.3-3.1-4.6-6.3-7-9.4c-2.1-2.7-4.8-3-6.9-1.1c-1.7,1.6-1.8,3.8,0.1,6.3
		c3.5,4.9,7.1,9.7,10.7,14.4c2.8,3.7,5.2,3.7,8.3,0.2c4.7-5.4,9.3-10.7,13.8-16.2C106.1,170.2,105.9,168.2,102.1,165.4z"/>
	<path class="st0" d="M191,169.8c-5.4-6.9-12.6-11.3-20.9-13.7c-9-2.6-18.2-4.8-27.3-7.1c-2.4-0.6-4.5-0.2-6.5,1.3
		c-7.1,5.2-14.3,10.4-21.4,15.6c-3.1,2.3-3.3,4.4-0.8,7.4c4.7,5.6,9.5,11.2,14.3,16.8c3,3.5,5.5,3.4,8.2-0.3
		c3.5-4.6,6.9-9.3,10.3-14c0.5-0.7,0.9-1.4,1.2-2.2c0.8-2,0.3-3.8-1.2-4.9c-1.6-1.2-3.5-1.2-5.2,0.1c-0.8,0.6-1.5,1.4-2.1,2.3
		c-2.5,3.3-4.9,6.6-7.5,10.1c-3-3.5-5.9-6.9-9-10.5c0.9-0.6,1.5-1.1,2.2-1.6c3.3-2.5,6.6-4.8,9.8-7.4c3.8-3.2,7.8-4,12.5-2.5
		c4.2,1.3,8.5,2.3,12.7,3.6c5,1.6,10.2,2.9,14.9,5c7.2,3.3,11.6,9,12.4,17.1c0,0.4,0.1,0.8,0.1,1.2h8.9
		C196.4,180.2,194.9,174.6,191,169.8z"/>
</g>
</svg>
