<?xml version="1.0" encoding="utf-8"?>
<!-- Generator: Adobe Illustrator 21.0.0, SVG Export Plug-In . SVG Version: 6.00 Build 0)  -->
<svg version="1.1" id="Layer_1" xmlns="http://www.w3.org/2000/svg" xmlns:xlink="http://www.w3.org/1999/xlink" x="0px" y="0px"
	 viewBox="0 0 217.8 216.5" style="enable-background:new 0 0 217.8 216.5;" xml:space="preserve">
<style type="text/css">
	.st0{fill:#FFFFFF;}
</style>
<g>
	<path class="st0" d="M30.2,167.8c0-38.5,0-77.1,0-115.6c0.3-1.2,0.5-2.4,0.9-3.6c2.2-6.1,7.8-9.9,14.5-9.9c19.7,0,39.4,0,59.2,0
		c0.6,0,1.3-0.2,1.9-0.5c3.9-1.9,7.7-3.8,11.6-5.7c1.6-0.8,3.2-1.1,5-0.9c1.2,0.1,2.2,0.6,2.8,1.7c0.8,1.6,1.8,3.1,2.6,4.6
		c0.3,0.6,0.7,0.8,1.3,0.8c8.9,0,17.7,0,26.6,0c0.9,0,1.7,0,2.6,0.1c6.9,0.5,13,6.5,13.4,13.5c0.2,3.9,0.1,7.8,0.1,11.7
		c0,0.3,0,0.6,0,1c2.2,0,4.2,0.4,6.1,1.3c5.8,2.8,8.8,7.5,8.8,13.8c0.1,28.7,0,57.5,0,86.2c0,2.9-0.6,5.6-2,8.1
		c-3.7,6.9-9.5,10.4-17.3,10.4c-39.6,0-79.1,0-118.7,0c-0.4,0-0.8,0-1.2,0c-8.3-0.3-15.4-5.9-17.5-13.9
		C30.6,169.9,30.4,168.9,30.2,167.8z M180,110c0-0.3,0-0.5,0-0.7c0-9.7,0-19.4,0-29.1c0-0.8-0.1-1.6-0.3-2.3c-1-3.4-3.9-5.4-7.7-5.4
		c-42,0-84.1,0-126.1,0c-1.5,0-3-0.2-4.4-0.5c-1.3-0.3-2.5-0.9-3.8-1.3c0,0.2,0,0.4,0,0.6c0,31.6,0,63.3,0,94.9
		c0,6.4,5,11.3,11.4,11.3c39.8,0,79.7,0,119.5,0c0.7,0,1.5-0.1,2.2-0.2c5.4-1.1,9.1-5.5,9.2-11.1c0-8.5,0-17,0-25.4
		c0-0.2,0-0.5-0.1-0.7c-0.4,0-0.6,0-0.9,0c-4.4,0-8.9,0-13.3,0c-1.1,0-2.3,0-3.4-0.3c-7.6-1.4-12.8-8.4-12.1-16.2
		c0.7-7.4,7-13.3,14.6-13.5c4.7-0.1,9.5,0,14.2,0C179.3,110,179.6,110,180,110z M65.9,65c22.3,0,44.7,0,67.2,0
		c-4.3-8.5-8.2-17-13-25.2C102.3,48.7,83.9,56.4,65.9,65z M92.2,46.5c0-0.1,0-0.1,0-0.2c-0.3,0-0.5,0-0.8,0c-15.2,0-30.4,0-45.6,0
		c-1.6,0-2.9,0.6-4,1.7c-2.5,2.7-3.9,5.8-4,9.5c-0.2,4.9,4.6,9.4,10.6,7.1c10.9-4.2,21.6-8.9,32.4-13.4C84.6,49.6,88.4,48,92.2,46.5
		z M131.8,46.3c0.1,0.2,0.1,0.4,0.2,0.5c2.9,5.9,5.8,11.8,8.7,17.7c0.2,0.5,0.5,0.6,1,0.6c7.5,0,15,0,22.6,0c0.3,0,0.5,0,0.7,0
		c0-0.2,0.1-0.2,0.1-0.3c0-3.5,0-7,0-10.4c0-4.9-3.1-8-8-8c-8.1,0-16.2,0-24.2,0C132.5,46.3,132.2,46.3,131.8,46.3z M180,117.5
		c-0.2,0-0.2-0.1-0.3-0.1c-4.9,0-9.8-0.1-14.8,0c-4.6,0.1-7.9,4-7.3,8.4c0.5,3.8,3.6,6.5,7.6,6.6c4.7,0,9.4,0,14,0
		c0.2,0,0.5,0,0.7,0C180,127.5,180,122.5,180,117.5z"/>
	<path class="st0" d="M172.5,121.3c0,2.5,0,4.9,0,7.4c-2.5,0-4.9,0-7.4,0c0-2.5,0-4.9,0-7.4C167.6,121.3,170,121.3,172.5,121.3z"/>
</g>
</svg>
