<?xml version="1.0" encoding="utf-8"?>
<!-- Generator: Adobe Illustrator 21.0.0, SVG Export Plug-In . SVG Version: 6.00 Build 0)  -->
<svg version="1.1" id="Layer_1" xmlns="http://www.w3.org/2000/svg" xmlns:xlink="http://www.w3.org/1999/xlink" x="0px" y="0px"
	 viewBox="0 0 202.5 229.9" style="enable-background:new 0 0 202.5 229.9;" xml:space="preserve">
<style type="text/css">
	.st0{fill:#C4C718;}
</style>
<path class="st0" d="M16.5,84.8C17.3,54.5,30,30.4,55.4,13.6C73,2,92.6-2.2,113.6,1.1c28,4.4,48.7,19.3,62.3,43.8
	c8.9,16.1,11.7,33.5,9.2,51.9c-2,15-8.7,28-15.8,40.9c-13.9,25.4-30.6,48.9-48.6,71.5c-4.6,5.8-9.3,11.6-14.1,17.2
	c-3.9,4.7-6.9,4.6-10.8,0c-18.6-21.8-35.8-44.7-51.1-69c-8.4-13.4-16.3-27.1-22.4-41.7C18.3,105.9,16.5,95.5,16.5,84.8z
	 M101.3,127.8c23.4,0,43.2-19.6,42.9-43.1c-0.4-24-19-42.5-42.5-42.8c-24.1-0.3-43.1,19.2-43.3,42.6
	C58.2,108.4,77.5,127.8,101.3,127.8z"/>
</svg>
