<?xml version="1.0" encoding="utf-8"?>
<!-- Generator: Adobe Illustrator 21.0.0, SVG Export Plug-In . SVG Version: 6.00 Build 0)  -->
<svg version="1.1" id="Layer_1" xmlns="http://www.w3.org/2000/svg" xmlns:xlink="http://www.w3.org/1999/xlink" x="0px" y="0px"
	 viewBox="0 0 202.5 229.9" style="enable-background:new 0 0 202.5 229.9;" xml:space="preserve">
<style type="text/css">
	.st0{fill:#C4C718;}
</style>
<path class="st0" d="M50.7,2.5c33.7,0,67.3,0,101,0c10.6,4.5,13.1,8.4,13.1,20.2c0,61.5-0.1,123.1,0.1,184.6
	c0,10.1-3.6,16.9-13.2,20.2c-33.7,0-67.3,0-101,0c-10.6-4.5-13.1-8.3-13.1-20.2c0-61.6,0-123.1,0-184.7C37.6,10.7,40,7,50.7,2.5z
	 M152.4,175.2c0-48.4,0-96.5,0-144.9c-34.3,0-68.3,0-102.5,0c0,48.4,0,96.5,0,144.9C84.1,175.2,118,175.2,152.4,175.2z M101.2,12.5
	c-7,0-14,0.1-20.9,0c-2.7,0-4.5,0.6-4.5,3.7c-0.1,3.2,1.4,4.3,4.6,4.3c14-0.1,27.9-0.1,41.9,0c3.2,0,4.6-1.1,4.5-4.3
	c-0.1-3.2-1.8-3.8-4.6-3.7C115.1,12.5,108.1,12.5,101.2,12.5z M101.1,190.4c-5.9,0-10.5,4.7-10.4,10.5c0.1,5.7,4.9,10.5,10.5,10.5
	c5.6,0,10.5-4.9,10.4-10.6C111.6,195,106.9,190.4,101.1,190.4z"/>
</svg>
