<?xml version="1.0" encoding="utf-8"?>
<!-- Generator: Adobe Illustrator 21.0.0, SVG Export Plug-In . SVG Version: 6.00 Build 0)  -->
<svg version="1.1" id="Layer_1" xmlns="http://www.w3.org/2000/svg" xmlns:xlink="http://www.w3.org/1999/xlink" x="0px" y="0px"
	 viewBox="0 0 202.5 229.9" style="enable-background:new 0 0 202.5 229.9;" xml:space="preserve">
<style type="text/css">
	.st0{fill:#C4C718;}
</style>
<path class="st0" d="M0,185.6c0-25.3,0-50.7,0-76c0-0.6,0.1-1.3,0.1-1.9c0-7.8,0-15.6,0.1-23.3c0-0.5,0.1-1,0.2-1.4
	c1.8-4.3,4.7-7.6,8.8-10.1c22.9-13.7,45.6-27.6,68.4-41.4c3.4-2.1,6.8-4.1,10.4-5.9c5.2-2.6,10.8-2.9,16.4-2.4
	c4.4,0.4,8.6,1.5,12.5,3.9c16.2,9.7,32.5,19.3,48.6,29c9.6,5.8,19.2,11.8,28.8,17.6c2.9,1.7,5,4.1,6.5,7c0.3,0.6,0.7,1.3,0.9,2
	c0.2,0.5,0.4,1.1,0.4,1.7c0.1,28.1,0.2,56.3,0.2,84.4c0,7.1-0.1,14.2-0.2,21.3c0,3.3-1,6.3-2.9,9c-2.9,4.1-6.7,7.1-11.8,7.6
	c-1.6,0.2-3.3,0.2-5,0.2c-19.6,0-39.1,0.1-58.7,0.1c-35.8,0-71.6-0.1-107.4-0.1c-2.4,0-4.4-0.5-6.5-1.7c-6.1-3.6-9.9-8.6-9.8-16
	C0.2,188,0.1,186.8,0,185.6z M102.2,41.6c-3.4-0.4-6,0.3-8.7,1.9C85,48.7,76.4,53.7,67.9,58.8c-14.8,8.9-29.5,17.8-44.2,26.8
	c-1.6,0.9-3.1,2-4.5,3.1c-1.3,1-1.1,2.6,0.3,3.5c23.5,15.6,46.9,31.1,70.4,46.7c2.1,1.4,4.2,2.5,6.6,3c5.7,1.1,11,0.5,16-2.8
	c16.4-11,32.9-21.9,49.3-32.8c7.2-4.8,14.3-9.5,21.5-14.2c0.3-0.2,0.7-0.5,0.7-0.8c0-1.2,0.1-2.4-1.2-3.2c-2.7-1.6-5.2-3.4-7.9-5
	c-21.6-13-43.2-26-64.8-39C107.5,42.6,105.1,40.9,102.2,41.6z M171.4,188.5c-13.4-13.4-26.7-26.7-40-40c-2.7,1.8-5.5,3.8-8.3,5.6
	c-3.3,2.2-6.7,4.1-10.5,5.3c-4.4,1.4-8.9,1.4-13.5,1.4c-6.2,0-11.8-1.8-17-5c-3.4-2.1-6.6-4.4-10-6.6c-0.3-0.2-0.6-0.4-0.9-0.6
	c0.1,0.1,0.1,0.2,0.2,0.3c-13.2,13.2-26.5,26.5-39.6,39.6C78.2,188.5,124.8,188.5,171.4,188.5z M18.4,174.7
	c12.2-12.1,24.5-24.2,36.9-36.5c-12.1-8-24.2-16-36.3-24c-0.1,0.1-0.2,0.1-0.3,0.2C18.1,134.5,18.5,154.8,18.4,174.7z M184,113.7
	c-12.2,8.2-24.2,16.2-36.5,24.4c12.2,12.3,24.3,24.5,36.5,36.7C184,154.4,184,134.2,184,113.7z"/>
</svg>
