<?xml version="1.0" encoding="utf-8"?>
<!-- Generator: Adobe Illustrator 21.0.0, SVG Export Plug-In . SVG Version: 6.00 Build 0)  -->
<svg version="1.1" id="Layer_1" xmlns="http://www.w3.org/2000/svg" xmlns:xlink="http://www.w3.org/1999/xlink" x="0px" y="0px"
	 viewBox="0 0 220.2 220.3" style="enable-background:new 0 0 220.2 220.3;" xml:space="preserve">
<style type="text/css">
	.st0{fill:#FFFFFF;}
</style>
<g>
	<path class="st0" d="M102.9,86c-2-1.8-4.2-3.2-6.8-3.7c-2.5-0.5-5.2-0.5-7.7-0.5c-2.3,0-4.5,0.7-6.5,1.7c-2.6,1.4-4.9,3.2-6.8,5.6
		c-1.6,2.1-3,4.4-3.5,7c-1.3,6.1-0.5,11.8,3.6,16.7c1.6,2,3.5,3.7,5.7,4.9c1.7,0.9,3.5,1.4,5.2,2.1c0.3,0.1,0.7,0.7,0.6,0.9
		c-0.3,1.4-0.6,2.9-1.2,4.2c-0.7,1.7-1.7,3.3-2.5,4.9c-0.6,1.1-1.3,2.2-2,3.3c-0.4,0.7-0.9,1.4-1.5,2.3c0.8-0.1,1.4-0.1,1.9-0.4
		c2.7-1.3,5.4-2.5,8-3.9c1.8-1,3.5-2.1,5-3.4c1.9-1.6,3.8-3.3,5.5-5.1c1.3-1.4,2.7-2.8,3.7-4.4c1.4-2.1,2.4-4.4,3.6-6.6
		c1.6-2.9,2-6,2.4-9.2c0.3-2.8-0.3-5.6-1.2-8.3C107.3,91,105.5,88.3,102.9,86z"/>
	<path class="st0" d="M142.3,84.2c-2.2-1.4-4.5-2.3-7.1-2.4c-3.3-0.2-6.5-0.2-9.7,1c-2.8,1-5.2,2.6-7.3,4.6c-2.3,2.3-4,5-4.9,8.2
		c-0.8,2.9-0.8,5.9-0.4,8.9c0.1,0.9,0.2,1.9,0.6,2.7c1.1,2.9,2.6,5.6,5,7.8c1.8,1.7,3.8,3.1,6.2,4c1,0.4,2,0.6,3,1
		c0.2,0.1,0.5,0.5,0.5,0.8c0.1,0.4,0,0.8-0.1,1.2c-0.8,2.1-1.5,4.3-2.5,6.3c-0.7,1.5-1.7,2.8-2.6,4.3c-0.6,0.9-1.2,1.9-1.7,2.8
		c0.1,0.1,0.2,0.2,0.2,0.2c1.3-0.4,2.7-0.8,3.9-1.3c1.8-0.8,3.5-1.8,5.2-2.8c1.5-0.9,3-1.8,4.3-2.9c1.8-1.4,3.5-2.8,5.1-4.3
		c1.6-1.6,3.2-3.3,4.6-5.1c1.4-2,2.7-4.1,3.7-6.3c1-2,1.9-4.1,2.4-6.3c1.1-5.7,0.7-11.2-2.5-16.4C146.6,87.8,144.7,85.7,142.3,84.2z
		"/>
	<path class="st0" d="M110.1,5C54,5,8.4,50.5,8.4,106.6c0,18.5,5,35.9,13.6,50.8L8.4,208.3l50.8-13.6c15,8.7,32.3,13.6,50.8,13.6
		c56.1,0,101.6-45.5,101.6-101.6S166.2,5,110.1,5z M110.1,188.3c-14.4,0-28.5-3.8-40.8-10.9l-7.2-4.2l-8,2.1L36.7,180l4.6-17.3
		l2.1-8l-4.2-7.2c-7.1-12.3-10.9-26.5-10.9-40.8c0-45,36.6-81.6,81.6-81.6c45,0,81.6,36.6,81.6,81.6
		C191.7,151.7,155.1,188.3,110.1,188.3z"/>
</g>
</svg>
