<?xml version="1.0" encoding="UTF-8" standalone="no"?>
<!-- Generator: Adobe Illustrator 21.0.0, SVG Export Plug-In . SVG Version: 6.00 Build 0)  -->

<svg
   xmlns:dc="http://purl.org/dc/elements/1.1/"
   xmlns:cc="http://creativecommons.org/ns#"
   xmlns:rdf="http://www.w3.org/1999/02/22-rdf-syntax-ns#"
   xmlns:svg="http://www.w3.org/2000/svg"
   xmlns="http://www.w3.org/2000/svg"
   xmlns:sodipodi="http://sodipodi.sourceforge.net/DTD/sodipodi-0.dtd"
   xmlns:inkscape="http://www.inkscape.org/namespaces/inkscape"
   version="1.1"
   id="Layer_1"
   x="0px"
   y="0px"
   viewBox="0 0 183 183"
   xml:space="preserve"
   sodipodi:docname="icon_sales.svg"
   width="183"
   height="183"
   inkscape:version="0.92.4 (5da689c313, 2019-01-14)"><metadata
   id="metadata19"><rdf:RDF><cc:Work
       rdf:about=""><dc:format>image/svg+xml</dc:format><dc:type
         rdf:resource="http://purl.org/dc/dcmitype/StillImage" /><dc:title></dc:title></cc:Work></rdf:RDF></metadata><defs
   id="defs17" /><sodipodi:namedview
   pagecolor="#ffffff"
   bordercolor="#666666"
   borderopacity="1"
   objecttolerance="10"
   gridtolerance="10"
   guidetolerance="10"
   inkscape:pageopacity="0"
   inkscape:pageshadow="2"
   inkscape:window-width="716"
   inkscape:window-height="480"
   id="namedview15"
   showgrid="false"
   inkscape:pagecheckerboard="true"
   inkscape:zoom="1.0712664"
   inkscape:cx="110.1"
   inkscape:cy="110.15"
   inkscape:window-x="298"
   inkscape:window-y="27"
   inkscape:window-maximized="0"
   inkscape:current-layer="Layer_1" />
<style
   type="text/css"
   id="style2">
	.st0{fill:#FFFFFF;}
</style>
<g
   id="g12"
   transform="matrix(0.50000004,0,0,0.50000004,37.450223,35.343419)">
	<path
   class="st0"
   d="m 161.3,205.7 c -3.2,-1.2 -7.7,-2.9 -12.2,-4.7 -18.1,-7 -15.5,-7 -27.1,7.1 -2,2.4 -4,4.9 -5.9,7.4 -5.2,6.5 -6.7,6.4 -12,-0.2 -4,-4.9 -8,-9.8 -11.9,-14.8 -3.2,-4.2 -7.1,-5 -11.9,-3 -6.5,2.6 -13,5.1 -19.5,7.5 -5.4,2 -7.2,0.8 -8.1,-5 -1,-6.7 -2.1,-13.5 -3.1,-20.2 -0.9,-5.9 -3.3,-8.2 -9.5,-9.1 -6.9,-1 -13.8,-2.1 -20.7,-3.2 -4.7,-0.8 -6,-2.8 -4.3,-7.4 2.4,-6.7 5,-13.4 7.7,-20 2,-5 1.3,-8.9 -3.2,-12.3 -5.6,-4.2 -10.9,-8.7 -16.3,-13.2 -4.2,-3.5 -4.3,-5.7 -0.1,-9.2 5.6,-4.7 11.3,-9.3 17.1,-13.9 3.6,-2.9 4.5,-6.4 2.9,-10.6 -2.6,-6.8 -5.3,-13.6 -7.8,-20.5 -1.9,-5.2 -0.8,-7.1 4.5,-7.9 6.9,-1.1 13.8,-2.1 20.7,-3.2 5.9,-0.9 8.2,-3.3 9.1,-9.5 1,-6.9 2,-13.8 3.2,-20.7 0.8,-4.7 2.8,-5.9 7.4,-4.3 6.9,2.5 13.7,5.1 20.5,7.8 4.6,1.9 8.3,1 11.5,-3 4.5,-5.8 9.1,-11.5 13.8,-17.1 3.1,-3.7 5.4,-3.7 8.5,0.1 4.6,5.5 9.2,11 13.5,16.7 3.4,4.4 7.3,5.2 12.3,3.2 6.5,-2.6 13,-5.1 19.5,-7.4 5.1,-1.9 7,-0.6 7.9,4.7 1.1,6.9 2.1,13.8 3.2,20.7 0.9,5.6 3.3,8 9.1,8.9 6.9,1 13.8,2.1 20.7,3.2 5,0.8 6.3,2.8 4.5,7.6 -2.5,6.9 -5.2,13.7 -7.8,20.5 -1.7,4.4 -0.9,8.1 2.9,11.1 5.7,4.5 11.4,9.2 17.1,13.8 3.9,3.2 3.9,5.6 0,8.9 -5.6,4.7 -11.3,9.3 -17.1,13.8 -3.8,3 -4.6,6.6 -2.9,11.1 2.7,6.8 5.3,13.6 7.8,20.5 1.8,4.9 0.6,6.8 -4.4,7.6 -7.1,1.1 -14.1,2.2 -21.2,3.2 -5.1,0.7 -8,3.6 -8.7,8.8 -1,7.1 -2.1,14.1 -3.2,21.2 -0.7,2.8 -1.5,5.5 -6.5,5 z M 24.8,110.1 c 16.9,10.8 20.7,24.8 11.5,42.5 8.5,1.4 16.5,2.3 22.8,8.5 6.3,6.2 7.1,14.3 8.8,22.8 17.5,-9.1 31.5,-5.5 42.1,11.3 5.5,-6.8 10.4,-13.3 18.9,-15.5 8.4,-2.2 15.9,0.8 23.9,4 1.1,-8.7 2.4,-16.6 8.6,-22.9 6.2,-6.2 14.4,-6.7 22.4,-8.5 -3.5,-7.9 -6.1,-15.4 -3.9,-23.7 2.2,-8.4 8.7,-13.3 15.3,-18.6 -7,-5.2 -13.2,-10.2 -15.4,-18.5 -2.2,-8.4 0.6,-16 4.2,-24.2 C 163.8,66.5 153.6,56 152.8,36 134.7,45.5 120.8,41.7 110.1,24.7 99.4,42 85.3,45.3 67.5,36.2 66.7,56.4 56.3,66.7 36.2,67.5 c 9.2,17.9 5.6,31.9 -11.4,42.6 z"
   id="path4"
   inkscape:connector-curvature="0"
   style="fill:#ffffff" />
	<path
   class="st0"
   d="m 148.6,77.9 c -1.7,2.6 -2.6,4.8 -4.1,6.4 -19.4,19.5 -38.8,38.9 -58.3,58.3 -3.8,3.8 -7.9,4 -10.9,0.9 -2.8,-2.9 -2.3,-6.9 1.3,-10.5 19.4,-19.4 38.8,-38.9 58.3,-58.3 2.4,-2.4 5.1,-4.4 8.3,-2.5 2,1.2 3.4,3.6 5.4,5.7 z"
   id="path6"
   inkscape:connector-curvature="0"
   style="fill:#ffffff" />
	<path
   class="st0"
   d="m 73.5,89.1 c 0,-9.6 7.7,-17.4 17.3,-17.5 9.8,-0.1 17.7,8 17.6,17.8 -0.1,9.5 -8.1,17.3 -17.7,17.2 -9.5,0 -17.2,-7.8 -17.2,-17.5 z M 91,81.2 c -4.2,-0.1 -8,3.6 -8.1,7.7 -0.1,4.2 3.6,7.9 7.9,8 4.4,0.1 7.9,-3.3 7.9,-7.7 0,-4.4 -3.3,-7.9 -7.7,-8 z"
   id="path8"
   inkscape:connector-curvature="0"
   style="fill:#ffffff" />
	<path
   class="st0"
   d="m 129.9,145.7 c -9.6,-0.1 -17.3,-7.8 -17.3,-17.5 0,-9.5 7.9,-17.5 17.4,-17.6 9.5,-0.1 17.8,8.4 17.6,17.9 -0.2,9.6 -8.1,17.2 -17.7,17.2 z m 7.9,-17.6 c -0.1,-4.5 -3.4,-7.7 -7.9,-7.6 -4.4,0.1 -8,3.6 -7.8,7.9 0.1,4.3 3.9,7.9 8.1,7.8 4.3,-0.1 7.7,-3.6 7.6,-8.1 z"
   id="path10"
   inkscape:connector-curvature="0"
   style="fill:#ffffff" />
</g>
</svg>