<?xml version="1.0" encoding="utf-8"?>
<!-- Generator: Adobe Illustrator 21.0.0, SVG Export Plug-In . SVG Version: 6.00 Build 0)  -->
<svg version="1.1" id="Layer_1" xmlns="http://www.w3.org/2000/svg" xmlns:xlink="http://www.w3.org/1999/xlink" x="0px" y="0px"
	 viewBox="0 0 220.2 220.3" style="enable-background:new 0 0 220.2 220.3;" xml:space="preserve">
<style type="text/css">
	.st0{fill:#FFFFFF;}
</style>
<g>
	<path class="st0" d="M161.3,205.7c-3.2-1.2-7.7-2.9-12.2-4.7c-18.1-7-15.5-7-27.1,7.1c-2,2.4-4,4.9-5.9,7.4
		c-5.2,6.5-6.7,6.4-12-0.2c-4-4.9-8-9.8-11.9-14.8c-3.2-4.2-7.1-5-11.9-3c-6.5,2.6-13,5.1-19.5,7.5c-5.4,2-7.2,0.8-8.1-5
		c-1-6.7-2.1-13.5-3.1-20.2c-0.9-5.9-3.3-8.2-9.5-9.1c-6.9-1-13.8-2.1-20.7-3.2c-4.7-0.8-6-2.8-4.3-7.4c2.4-6.7,5-13.4,7.7-20
		c2-5,1.3-8.9-3.2-12.3c-5.6-4.2-10.9-8.7-16.3-13.2c-4.2-3.5-4.3-5.7-0.1-9.2c5.6-4.7,11.3-9.3,17.1-13.9c3.6-2.9,4.5-6.4,2.9-10.6
		c-2.6-6.8-5.3-13.6-7.8-20.5c-1.9-5.2-0.8-7.1,4.5-7.9c6.9-1.1,13.8-2.1,20.7-3.2c5.9-0.9,8.2-3.3,9.1-9.5c1-6.9,2-13.8,3.2-20.7
		c0.8-4.7,2.8-5.9,7.4-4.3c6.9,2.5,13.7,5.1,20.5,7.8c4.6,1.9,8.3,1,11.5-3c4.5-5.8,9.1-11.5,13.8-17.1c3.1-3.7,5.4-3.7,8.5,0.1
		c4.6,5.5,9.2,11,13.5,16.7c3.4,4.4,7.3,5.2,12.3,3.2c6.5-2.6,13-5.1,19.5-7.4c5.1-1.9,7-0.6,7.9,4.7c1.1,6.9,2.1,13.8,3.2,20.7
		c0.9,5.6,3.3,8,9.1,8.9c6.9,1,13.8,2.1,20.7,3.2c5,0.8,6.3,2.8,4.5,7.6c-2.5,6.9-5.2,13.7-7.8,20.5c-1.7,4.4-0.9,8.1,2.9,11.1
		c5.7,4.5,11.4,9.2,17.1,13.8c3.9,3.2,3.9,5.6,0,8.9c-5.6,4.7-11.3,9.3-17.1,13.8c-3.8,3-4.6,6.6-2.9,11.1
		c2.7,6.8,5.3,13.6,7.8,20.5c1.8,4.9,0.6,6.8-4.4,7.6c-7.1,1.1-14.1,2.2-21.2,3.2c-5.1,0.7-8,3.6-8.7,8.8c-1,7.1-2.1,14.1-3.2,21.2
		C167.1,203.5,166.3,206.2,161.3,205.7z M24.8,110.1c16.9,10.8,20.7,24.8,11.5,42.5c8.5,1.4,16.5,2.3,22.8,8.5
		c6.3,6.2,7.1,14.3,8.8,22.8c17.5-9.1,31.5-5.5,42.1,11.3c5.5-6.8,10.4-13.3,18.9-15.5c8.4-2.2,15.9,0.8,23.9,4
		c1.1-8.7,2.4-16.6,8.6-22.9c6.2-6.2,14.4-6.7,22.4-8.5c-3.5-7.9-6.1-15.4-3.9-23.7c2.2-8.4,8.7-13.3,15.3-18.6
		c-7-5.2-13.2-10.2-15.4-18.5c-2.2-8.4,0.6-16,4.2-24.2c-20.2-0.8-30.4-11.3-31.2-31.3c-18.1,9.5-32,5.7-42.7-11.3
		C99.4,42,85.3,45.3,67.5,36.2c-0.8,20.2-11.2,30.5-31.3,31.3C45.4,85.4,41.8,99.4,24.8,110.1z"/>
	<path class="st0" d="M148.6,77.9c-1.7,2.6-2.6,4.8-4.1,6.4c-19.4,19.5-38.8,38.9-58.3,58.3c-3.8,3.8-7.9,4-10.9,0.9
		c-2.8-2.9-2.3-6.9,1.3-10.5c19.4-19.4,38.8-38.9,58.3-58.3c2.4-2.4,5.1-4.4,8.3-2.5C145.2,73.4,146.6,75.8,148.6,77.9z"/>
	<path class="st0" d="M73.5,89.1c0-9.6,7.7-17.4,17.3-17.5c9.8-0.1,17.7,8,17.6,17.8c-0.1,9.5-8.1,17.3-17.7,17.2
		C81.2,106.6,73.5,98.8,73.5,89.1z M91,81.2c-4.2-0.1-8,3.6-8.1,7.7c-0.1,4.2,3.6,7.9,7.9,8c4.4,0.1,7.9-3.3,7.9-7.7
		C98.7,84.8,95.4,81.3,91,81.2z"/>
	<path class="st0" d="M129.9,145.7c-9.6-0.1-17.3-7.8-17.3-17.5c0-9.5,7.9-17.5,17.4-17.6c9.5-0.1,17.8,8.4,17.6,17.9
		C147.4,138.1,139.5,145.7,129.9,145.7z M137.8,128.1c-0.1-4.5-3.4-7.7-7.9-7.6c-4.4,0.1-8,3.6-7.8,7.9c0.1,4.3,3.9,7.9,8.1,7.8
		C134.5,136.1,137.9,132.6,137.8,128.1z"/>
</g>
</svg>
