<?xml version="1.0" encoding="UTF-8" standalone="no"?>
<!-- Generator: Adobe Illustrator 21.0.0, SVG Export Plug-In . SVG Version: 6.00 Build 0)  -->

<svg
   xmlns:dc="http://purl.org/dc/elements/1.1/"
   xmlns:cc="http://creativecommons.org/ns#"
   xmlns:rdf="http://www.w3.org/1999/02/22-rdf-syntax-ns#"
   xmlns:svg="http://www.w3.org/2000/svg"
   xmlns="http://www.w3.org/2000/svg"
   xmlns:sodipodi="http://sodipodi.sourceforge.net/DTD/sodipodi-0.dtd"
   xmlns:inkscape="http://www.inkscape.org/namespaces/inkscape"
   version="1.1"
   id="Layer_1"
   x="0px"
   y="0px"
   viewBox="0 0 183 183"
   xml:space="preserve"
   sodipodi:docname="icon_comment.svg"
   width="183"
   height="183"
   inkscape:version="0.92.4 (5da689c313, 2019-01-14)"><metadata
   id="metadata17"><rdf:RDF><cc:Work
       rdf:about=""><dc:format>image/svg+xml</dc:format><dc:type
         rdf:resource="http://purl.org/dc/dcmitype/StillImage" /><dc:title></dc:title></cc:Work></rdf:RDF></metadata><defs
   id="defs15" /><sodipodi:namedview
   pagecolor="#ffffff"
   bordercolor="#666666"
   borderopacity="1"
   objecttolerance="10"
   gridtolerance="10"
   guidetolerance="10"
   inkscape:pageopacity="0"
   inkscape:pageshadow="2"
   inkscape:window-width="716"
   inkscape:window-height="480"
   id="namedview13"
   showgrid="false"
   inkscape:pagecheckerboard="true"
   inkscape:zoom="1.0712664"
   inkscape:cx="110.1"
   inkscape:cy="110.15"
   inkscape:window-x="0"
   inkscape:window-y="0"
   inkscape:window-maximized="0"
   inkscape:current-layer="Layer_1" />
<style
   type="text/css"
   id="style2">
	.st0{fill:#FFFFFF;}
</style>
<g
   id="g10"
   transform="matrix(0.43033288,0,0,0.43033288,42.885204,46.861661)">
	<path
   class="st0"
   d="m 102.9,86 c -2,-1.8 -4.2,-3.2 -6.8,-3.7 -2.5,-0.5 -5.2,-0.5 -7.7,-0.5 -2.3,0 -4.5,0.7 -6.5,1.7 -2.6,1.4 -4.9,3.2 -6.8,5.6 -1.6,2.1 -3,4.4 -3.5,7 -1.3,6.1 -0.5,11.8 3.6,16.7 1.6,2 3.5,3.7 5.7,4.9 1.7,0.9 3.5,1.4 5.2,2.1 0.3,0.1 0.7,0.7 0.6,0.9 -0.3,1.4 -0.6,2.9 -1.2,4.2 -0.7,1.7 -1.7,3.3 -2.5,4.9 -0.6,1.1 -1.3,2.2 -2,3.3 -0.4,0.7 -0.9,1.4 -1.5,2.3 0.8,-0.1 1.4,-0.1 1.9,-0.4 2.7,-1.3 5.4,-2.5 8,-3.9 1.8,-1 3.5,-2.1 5,-3.4 1.9,-1.6 3.8,-3.3 5.5,-5.1 1.3,-1.4 2.7,-2.8 3.7,-4.4 1.4,-2.1 2.4,-4.4 3.6,-6.6 1.6,-2.9 2,-6 2.4,-9.2 0.3,-2.8 -0.3,-5.6 -1.2,-8.3 -1.1,-3.1 -2.9,-5.8 -5.5,-8.1 z"
   id="path4"
   inkscape:connector-curvature="0"
   style="fill:#ffffff" />
	<path
   class="st0"
   d="m 142.3,84.2 c -2.2,-1.4 -4.5,-2.3 -7.1,-2.4 -3.3,-0.2 -6.5,-0.2 -9.7,1 -2.8,1 -5.2,2.6 -7.3,4.6 -2.3,2.3 -4,5 -4.9,8.2 -0.8,2.9 -0.8,5.9 -0.4,8.9 0.1,0.9 0.2,1.9 0.6,2.7 1.1,2.9 2.6,5.6 5,7.8 1.8,1.7 3.8,3.1 6.2,4 1,0.4 2,0.6 3,1 0.2,0.1 0.5,0.5 0.5,0.8 0.1,0.4 0,0.8 -0.1,1.2 -0.8,2.1 -1.5,4.3 -2.5,6.3 -0.7,1.5 -1.7,2.8 -2.6,4.3 -0.6,0.9 -1.2,1.9 -1.7,2.8 0.1,0.1 0.2,0.2 0.2,0.2 1.3,-0.4 2.7,-0.8 3.9,-1.3 1.8,-0.8 3.5,-1.8 5.2,-2.8 1.5,-0.9 3,-1.8 4.3,-2.9 1.8,-1.4 3.5,-2.8 5.1,-4.3 1.6,-1.6 3.2,-3.3 4.6,-5.1 1.4,-2 2.7,-4.1 3.7,-6.3 1,-2 1.9,-4.1 2.4,-6.3 1.1,-5.7 0.7,-11.2 -2.5,-16.4 -1.6,-2.4 -3.5,-4.5 -5.9,-6 z"
   id="path6"
   inkscape:connector-curvature="0"
   style="fill:#ffffff" />
	<path
   class="st0"
   d="M 110.1,5 C 54,5 8.4,50.5 8.4,106.6 c 0,18.5 5,35.9 13.6,50.8 L 8.4,208.3 59.2,194.7 c 15,8.7 32.3,13.6 50.8,13.6 56.1,0 101.6,-45.5 101.6,-101.6 C 211.6,50.6 166.2,5 110.1,5 Z m 0,183.3 c -14.4,0 -28.5,-3.8 -40.8,-10.9 l -7.2,-4.2 -8,2.1 -17.4,4.7 4.6,-17.3 2.1,-8 -4.2,-7.2 C 32.1,135.2 28.3,121 28.3,106.7 c 0,-45 36.6,-81.6 81.6,-81.6 45,0 81.6,36.6 81.6,81.6 0.2,45 -36.4,81.6 -81.4,81.6 z"
   id="path8"
   inkscape:connector-curvature="0"
   style="fill:#ffffff" />
</g>
</svg>