<?xml version="1.0" encoding="utf-8"?>
<!-- Generator: Adobe Illustrator 21.0.0, SVG Export Plug-In . SVG Version: 6.00 Build 0)  -->
<svg version="1.1" id="Layer_1" xmlns="http://www.w3.org/2000/svg" xmlns:xlink="http://www.w3.org/1999/xlink" x="0px" y="0px"
	 viewBox="0 0 182.2 177.3" style="enable-background:new 0 0 182.2 177.3;" xml:space="preserve">
<style type="text/css">
	.st0{fill:#C4C718;}
</style>
<path class="st0" d="M64.6,50.1c14.1,0,28.1,0,42.4,0c0,2,0,3.9,0,5.8c0,13,0,25.9,0,38.9c0,0.7-0.2,1.5,0.1,2.2
	c0.4,1.4,0.8,3.6,1.7,4c1.3,0.5,3.5,0,4.7-0.9c2.4-1.8,4.6-4,6.6-6.3c10.4-12.3,18.4-26.1,25.2-40.7c0.7-1.6,1.5-2.1,3.3-2.1
	c7.9,0.1,15.9,0.1,23.8,0.1c4.7,0,6.9,2.5,5.1,6.8c-2.7,6.4-5.7,12.7-9.3,18.6c-5,8.3-10.5,16.3-15.9,24.4
	c-3.9,5.9-3.9,6.5,0.8,11.8c7,7.8,14.2,15.5,21,23.5c2.6,3,4.6,6.5,6.6,10c0.8,1.4,1.3,3,1.5,4.6c0.4,3.4-1.3,5.4-4.8,5.5
	c-3.7,0.1-7.4,0-11.1,0c-4.6,0-9.2,0.1-13.8-0.1c-1.2,0-2.6-0.6-3.4-1.5c-8.1-7.7-16-15.7-24.2-23.2c-2.6-2.4-5.7-4.2-8.9-5.7
	c-5.4-2.4-8.3-0.3-8.3,5.6c0,5.6,0,11.1,0,16.7c0,4.8-1.5,6.8-6.3,7.5c-10.1,1.6-19.9,0.4-29.5-3.2c-14.5-5.6-26.3-14.9-35.9-26.9
	C22.5,108.7,11.2,90.4,3.8,70c-1.6-4.4-2.7-8.9-3.6-13.5c-0.9-4,1.3-6.5,5.4-6.6c8.7-0.1,17.3,0,26,0c1.5,0,1.8,0.8,2.2,1.9
	c4,13.1,9.5,25.5,16.5,37.3c3.8,6.4,7.9,12.6,13.5,17.6c1.1,1,2.3,1.8,3.7,2.5c2.5,1.2,4.1,0.3,4.6-2.5c0.1-0.6,0.1-1.2,0.1-1.8
	c0-11,0-22.1,0-33.1c0-4.9-1.6-9.2-4.8-12.8C65.1,56.4,63.7,53.7,64.6,50.1z"/>
</svg>
