<?xml version="1.0" encoding="utf-8"?>
<!-- Generator: Adobe Illustrator 21.0.0, SVG Export Plug-In . SVG Version: 6.00 Build 0)  -->
<svg version="1.1" id="Layer_1" xmlns="http://www.w3.org/2000/svg" xmlns:xlink="http://www.w3.org/1999/xlink" x="0px" y="0px"
	 viewBox="0 0 182.2 177.3" style="enable-background:new 0 0 182.2 177.3;" xml:space="preserve">
<style type="text/css">
	.st0{fill:#C4C718;}
</style>
<path class="st0" d="M104.3,177.3c-12.4,0-24.4,0-36.8,0c0-29.5,0-58.8,0-88.4c-5.9,0-11.5,0-17.3,0c-0.1-1.1-0.2-2-0.2-2.8
	c0-8.6,0.1-17.2-0.1-25.8c0-2.4,0.8-3,3-2.9c4,0.2,8,0,12.1,0.1c1.9,0.1,2.5-0.6,2.5-2.5c0-7.5-0.2-15,0.4-22.5
	C69.5,14.3,80.4,1.7,100,0.4c9.9-0.7,19.9-0.2,29.9-0.3c1.5,0,2.1,0.6,2.1,2.1c0,8.8-0.1,17.5,0,26.3c0,1.9-0.9,2-2.4,2
	c-5.3,0-10.6-0.1-15.9,0c-6.7,0.1-9.3,2.6-9.4,9.3c-0.1,5,0.1,10.1-0.1,15.1c-0.1,2,0.6,2.7,2.6,2.7c7.9-0.1,15.7,0,23.6,0
	c0.5,0,1.1,0.1,1.9,0.2c-1.1,10.4-2.1,20.6-3.2,31c-8.3,0-16.4,0-24.9,0C104.3,118.4,104.3,147.8,104.3,177.3z"/>
</svg>
